HIERARCHY
ROOT Hips
{
    OFFSET 0.000000 0.000000 0.000000
    CHANNELS 6 Xposition Yposition Zposition Zrotation Xrotation Yrotation
    JOINT Spine
    {
        OFFSET -0.000000 7.236184 0.000000
        CHANNELS 3 Zrotation Xrotation Yrotation
        JOINT Spine1
        {
            OFFSET -0.000000 20.420147 0.000000
            CHANNELS 3 Zrotation Xrotation Yrotation
            JOINT Neck
            {
                OFFSET -0.000000 20.336288 1.848754
                CHANNELS 3 Zrotation Xrotation Yrotation
                JOINT Head
                {
                    OFFSET -0.000000 12.354461 -1.764923
                    CHANNELS 3 Zrotation Xrotation Yrotation
                    End Site
                    {
                        OFFSET -0.000000 22.061537 0.000000
                    }
                }
            }
            JOINT LeftShoulder
            {
                OFFSET 3.573296 18.396038 -0.314103
                CHANNELS 3 Zrotation Xrotation Yrotation
                JOINT LeftArm
                {
                    OFFSET 10.880760 0.000000 0.000000
                    CHANNELS 3 Zrotation Xrotation Yrotation
                    JOINT LeftForeArm
                    {
                        OFFSET 27.185530 0.000000 0.000000
                        CHANNELS 3 Zrotation Xrotation Yrotation
                        JOINT LeftHand
                        {
                            OFFSET 27.825975 0.000000 0.000000
                            CHANNELS 3 Zrotation Xrotation Yrotation
                            End Site
                            {
                                OFFSET 13.236923 0.000000 0.000000
                            }
                        }
                    }
                }
            }
            JOINT RightShoulder
            {
                OFFSET -3.474926 18.396038 -0.314103
                CHANNELS 3 Zrotation Xrotation Yrotation
                JOINT RightArm
                {
                    OFFSET -10.880760 0.000000 0.000000
                    CHANNELS 3 Zrotation Xrotation Yrotation
                    JOINT RightForeArm
                    {
                        OFFSET -27.185530 0.000000 0.000000
                        CHANNELS 3 Zrotation Xrotation Yrotation
                        JOINT RightHand
                        {
                            OFFSET -27.825975 0.000000 0.000000
                            CHANNELS 3 Zrotation Xrotation Yrotation
                            End Site
                            {
                                OFFSET -13.236923 0.000000 0.000000
                            }
                        }
                    }
                }
            }
        }
    }
    JOINT LeftUpLeg
    {
        OFFSET 8.824615 0.000000 0.000000
        CHANNELS 3 Zrotation Xrotation Yrotation
        JOINT LeftLeg
        {
            OFFSET -0.000000 -35.111282 0.000000
            CHANNELS 3 Zrotation Xrotation Yrotation
            JOINT LeftFoot
            {
                OFFSET -0.000000 -42.324711 0.000000
                CHANNELS 3 Zrotation Xrotation Yrotation
                JOINT LeftToeBase
                {
                    OFFSET -0.000000 -5.735999 13.236923
                    CHANNELS 3 Zrotation Xrotation Yrotation
                    End Site
                    {
                        OFFSET -0.000000 0.000000 3.529846
                    }
                }
            }
        }
    }
    JOINT RightUpLeg
    {
        OFFSET -8.824615 0.000000 0.000000
        CHANNELS 3 Zrotation Xrotation Yrotation
        JOINT RightLeg
        {
            OFFSET -0.000000 -35.111282 0.000000
            CHANNELS 3 Zrotation Xrotation Yrotation
            JOINT RightFoot
            {
                OFFSET -0.000000 -42.324711 0.000000
                CHANNELS 3 Zrotation Xrotation Yrotation
                JOINT RightToeBase
                {
                    OFFSET -0.000000 -5.735999 13.236923
                    CHANNELS 3 Zrotation Xrotation Yrotation
                    End Site
                    {
                        OFFSET -0.000000 0.000000 3.529846
                    }
                }
            }
        }
    }
}
MOTION
Frames:    12
Frame Time:    0.008333
-1.544583    81.664047    94.354034    -0.195819    -4.216626    -175.754669    -2.504881    -13.942478    0.696636    -1.304457    4.890231    1.058742    2.213574    7.328792    -3.573600    6.888535    2.611160    -3.074553    -0.003627    18.465633    -2.964482    -44.126862    46.820404    -38.378826    -3.111897    -3.498672    -17.547928    17.419365    -3.536522    2.887835    3.204701    11.559262    -4.903131    48.231007    -42.114433    77.302612    56.950695    -14.690159    -43.877884    -115.455795    -58.339935    42.671448    3.583292    -0.811709    0.221610    -2.844560    5.591675    0.344079    -0.719133    -8.006762    -8.208931    0.311463    0.420759    -0.344986    -2.864833    1.864111    -1.517768    2.989549    2.824021    3.222014    -1.947779    -6.645225    -13.335811    0.042187    -0.735312    -0.045674    
-1.545732    81.663048    94.363091    -0.205795    -4.228771    -175.772003    -2.517190    -13.948689    0.692454    -1.309473    4.868667    1.056157    2.247203    7.344178    -3.557501    6.860002    2.604593    -3.063310    0.023509    18.489134    -2.954877    -44.153336    46.802521    -38.391033    -3.114978    -3.490875    -17.540054    17.431175    -3.528584    2.888437    3.158227    11.469842    -4.846870    49.287483    -40.893646    72.276489    35.366936    37.834183    29.620514    -97.481010    14.152401    14.678328    3.568786    -0.829929    0.228370    -2.840698    5.597224    0.355222    -0.719579    -8.006164    -8.209908    0.309769    0.420301    -0.343109    -2.879413    1.839733    -1.516335    2.992630    2.832013    3.225446    -1.943851    -6.643979    -13.323692    0.042021    -0.732061    -0.045494    
-1.546921    81.662086    94.371834    -0.215444    -4.240222    -175.789139    -2.529932    -13.955170    0.688302    -1.312672    4.848633    1.053546    2.279309    7.358962    -3.541838    6.832591    2.598172    -3.052289    0.049004    18.511654    -2.946952    -44.179855    46.784832    -38.401363    -3.117884    -3.483505    -17.532782    17.442806    -3.521085    2.888931    3.110344    11.377987    -4.790565    49.720486    -39.211880    66.225624    -16.368036    9.115048    79.937126    -39.375145    26.414362    -12.157423    3.554748    -0.847021    0.234491    -2.837084    5.602210    0.366503    -0.720035    -8.005464    -8.210554    0.308167    0.420157    -0.341334    -2.893643    1.816577    -1.514686    2.995687    2.839499    3.229719    -1.940285    -6.642667    -13.312829    0.041810    -0.728915    -0.045266    
-1.548178    81.661186    94.380234    -0.224449    -4.250253    -175.806534    -2.543239    -13.961871    0.683871    -1.313121    4.830824    1.050743    2.309819    7.373229    -3.526319    6.806431    2.591709    -3.041103    0.072665    18.532907    -2.941427    -44.207489    46.766975    -38.408493    -3.120768    -3.476639    -17.526667    17.454500    -3.514144    2.889295    3.058071    11.279783    -4.732283    49.598923    -36.882347    59.579929    -25.407951    -5.155725    85.015038    -26.709492    21.780582    -14.508999    3.541553    -0.862026    0.239778    -2.833809    5.606313    0.378549    -0.720460    -8.004683    -8.210864    0.306761    0.419906    -0.339778    -2.906895    1.795214    -1.513101    2.998112    2.846422    3.234053    -1.936642    -6.641202    -13.301687    0.041547    -0.725435    -0.044980    
-1.549592    81.660316    94.388290    -0.232969    -4.258914    -175.824478    -2.557674    -13.968823    0.679632    -1.310123    4.814790    1.048137    2.338792    7.387711    -3.511522    6.782000    2.584996    -3.030328    0.094646    18.553316    -2.940914    -44.237362    46.748375    -38.410942    -3.123445    -3.470467    -17.521650    17.466202    -3.507926    2.889426    3.000409    11.172912    -4.671798    49.307251    -33.976025    53.130848    -29.942327    -13.244138    86.564407    -23.351439    18.518726    -13.105560    3.529000    -0.874795    0.243865    -2.830937    5.609382    0.391823    -0.720931    -8.003777    -8.210667    0.305540    0.419811    -0.338426    -2.919580    1.775675    -1.511147    3.000178    2.852797    3.239370    -1.933306    -6.639570    -13.291451    0.041203    -0.721839    -0.044608    
-1.551175    81.659492    94.395927    -0.240789    -4.265963    -175.843124    -2.571796    -13.977171    0.674205    -1.305717    4.803400    1.044259    2.365923    7.400284    -3.495994    6.760135    2.579619    -3.018448    0.114846    18.571014    -2.941501    -44.268562    46.730515    -38.408981    -3.125734    -3.465439    -17.518642    17.477335    -3.502884    2.889491    2.935656    11.055027    -4.604386    49.234730    -30.856125    47.544483    -33.362839    -19.159405    86.958977    -22.482859    15.988970    -11.247747    3.517379    -0.884901    0.246489    -2.828624    5.611123    0.406779    -0.721391    -8.002658    -8.209977    0.304556    0.419482    -0.337336    -2.931370    1.758143    -1.508782    3.001702    2.858569    3.245200    -1.930419    -6.637602    -13.281557    0.040780    -0.717976    -0.044150    
-1.553008    81.658707    94.403343    -0.248246    -4.271881    -175.862976    -2.587025    -13.985407    0.669722    -1.298680    4.791604    1.041494    2.393401    7.414953    -3.482231    6.740060    2.574541    -3.008148    0.135923    18.589476    -2.951492    -44.304554    46.710934    -38.400398    -3.127446    -3.461425    -17.516569    17.487925    -3.498835    2.889145    2.863945    10.926295    -4.533683    49.506721    -27.910210    43.035557    -36.289440    -23.760624    86.713684    -22.444424    13.946685    -9.546856    3.506202    -0.892883    0.247401    -2.826872    5.611486    0.424370    -0.721639    -8.001200    -8.209021    0.303824    0.419503    -0.336525    -2.942710    1.741819    -1.506005    3.002631    2.864009    3.251597    -1.927871    -6.635255    -13.271712    0.040215    -0.713529    -0.043537    
-1.555076    81.657997    94.410652    -0.255210    -4.277005    -175.884232    -2.601775    -13.994829    0.664914    -1.291527    4.781747    1.038292    2.420924    7.429796    -3.468745    6.722804    2.571290    -2.997950    0.158122    18.606981    -2.966989    -44.344398    46.690960    -38.385620    -3.128670    -3.458741    -17.516184    17.497561    -3.496206    2.888446    2.783589    10.785002    -4.454828    50.045555    -25.406525    39.571396    -38.823601    -27.310053    86.109726    -22.670828    12.320510    -8.150671    3.495645    -0.899167    0.246290    -2.825758    5.610589    0.445667    -0.722003    -7.999446    -8.208387    0.303329    0.419650    -0.335976    -2.953501    1.726171    -1.502560    3.002975    2.869293    3.258677    -1.925834    -6.632458    -13.262074    0.039649    -0.709096    -0.042925    
-1.557314    81.657387    94.417870    -0.261364    -4.281551    -175.906998    -2.615781    -14.005157    0.660514    -1.284294    4.772398    1.035430    2.448420    7.445689    -3.456651    6.709287    2.570302    -2.988813    0.182150    18.624458    -2.990574    -44.388256    46.670334    -38.364174    -3.129314    -3.457546    -17.517284    17.505861    -3.495094    2.887347    2.694184    10.630798    -4.368358    50.711258    -23.441465    36.998821    -40.983788    -29.993378    85.325623    -22.941769    11.051292    -7.073459    3.486023    -0.904053    0.242992    -2.825295    5.608387    0.471653    -0.722489    -7.997281    -8.208847    0.303012    0.420205    -0.335624    -2.963255    1.710880    -1.498268    3.002599    2.874323    3.265862    -1.924162    -6.629092    -13.252142    0.039004    -0.703836    -0.042226    
-1.559688    81.656982    94.425224    -0.266543    -4.286080    -175.931442    -2.628373    -14.016851    0.656396    -1.277948    4.763404    1.032778    2.476061    7.462524    -3.445881    6.699886    2.572222    -2.980740    0.208523    18.641451    -3.022815    -44.436729    46.649452    -38.334991    -3.129150    -3.458016    -17.519976    17.512968    -3.495644    2.885769    2.593985    10.461879    -4.272091    51.402454    -21.978985    35.124756    -42.819126    -32.007923    84.451675    -23.179581    10.062119    -6.275975    3.477622    -0.908255    0.236656    -2.825829    5.604802    0.504365    -0.723095    -7.994547    -8.211380    0.302785    0.420807    -0.335373    -2.971707    1.695069    -1.493122    3.001275    2.879390    3.273120    -1.922576    -6.625172    -13.241709    0.038403    -0.698378    -0.041575    
-1.562048    81.656906    94.432678    -0.270057    -4.290887    -175.957169    -2.638635    -14.030032    0.653026    -1.272848    4.754187    1.030661    2.503453    7.480647    -3.437173    6.695061    2.577417    -2.974354    0.237052    18.657955    -3.064918    -44.489372    46.628326    -38.297432    -3.128147    -3.459825    -17.524157    17.518881    -3.497596    2.883760    2.483286    10.279216    -4.166681    52.052917    -20.963205    33.814835    -44.355171    -33.487526    83.545227    -23.362413    9.298732    -5.723544    3.471246    -0.912221    0.226804    -2.827443    5.599795    0.545493    -0.724007    -7.991042    -8.217542    0.302572    0.421963    -0.335137    -2.977919    1.678537    -1.486965    2.998874    2.884267    3.279837    -1.921173    -6.620649    -13.230686    0.037802    -0.692715    -0.040924    
-1.564216    81.657318    94.440231    -0.270989    -4.296210    -175.983688    -2.644984    -14.044993    0.650391    -1.270294    4.744901    1.028934    2.530359    7.500338    -3.430656    6.695570    2.585378    -2.969713    0.268122    18.673805    -3.116049    -44.544750    46.607399    -38.252899    -3.126688    -3.462800    -17.529604    17.523932    -3.500741    2.881229    2.361565    10.083076    -4.051698    52.640301    -20.314152    32.946331    -45.635422    -34.556854    82.633286    -23.493483    8.706403    -5.373569    3.468090    -0.916393    0.212662    -2.830517    5.593372    0.595915    -0.725310    -7.986633    -8.227815    0.302410    0.423265    -0.334957    -2.980696    1.661209    -1.479664    2.995294    2.888553    3.285653    -1.919531    -6.615409    -13.219217    0.037156    -0.686762    -0.040225    
